<svg width="20" height="21" viewBox="0 0 20 21" fill="none" xmlns="http://www.w3.org/2000/svg">
<g clip-path="url(#clip0_3_584)">
<path d="M8 11.5H1C0.734784 11.5 0.48043 11.6054 0.292893 11.7929C0.105357 11.9804 0 12.2348 0 12.5V19.5C0 19.7652 0.105357 20.0196 0.292893 20.2071C0.48043 20.3946 0.734784 20.5 1 20.5H8C8.26522 20.5 8.51957 20.3946 8.70711 20.2071C8.89464 20.0196 9 19.7652 9 19.5V12.5C9 12.2348 8.89464 11.9804 8.70711 11.7929C8.51957 11.6054 8.26522 11.5 8 11.5ZM7 18.5H2V13.5H7V18.5ZM19 0.5H12C11.7348 0.5 11.4804 0.605357 11.2929 0.792893C11.1054 0.98043 11 1.23478 11 1.5V8.5C11 8.76522 11.1054 9.01957 11.2929 9.20711C11.4804 9.39464 11.7348 9.5 12 9.5H19C19.2652 9.5 19.5196 9.39464 19.7071 9.20711C19.8946 9.01957 20 8.76522 20 8.5V1.5C20 1.23478 19.8946 0.98043 19.7071 0.792893C19.5196 0.605357 19.2652 0.5 19 0.5ZM18 7.5H13V2.5H18V7.5ZM19 11.5H12C11.7348 11.5 11.4804 11.6054 11.2929 11.7929C11.1054 11.9804 11 12.2348 11 12.5V19.5C11 19.7652 11.1054 20.0196 11.2929 20.2071C11.4804 20.3946 11.7348 20.5 12 20.5H19C19.2652 20.5 19.5196 20.3946 19.7071 20.2071C19.8946 20.0196 20 19.7652 20 19.5V12.5C20 12.2348 19.8946 11.9804 19.7071 11.7929C19.5196 11.6054 19.2652 11.5 19 11.5ZM18 18.5H13V13.5H18V18.5ZM8 0.5H1C0.734784 0.5 0.48043 0.605357 0.292893 0.792893C0.105357 0.98043 0 1.23478 0 1.5V8.5C0 8.76522 0.105357 9.01957 0.292893 9.20711C0.48043 9.39464 0.734784 9.5 1 9.5H8C8.26522 9.5 8.51957 9.39464 8.70711 9.20711C8.89464 9.01957 9 8.76522 9 8.5V1.5C9 1.23478 8.89464 0.98043 8.70711 0.792893C8.51957 0.605357 8.26522 0.5 8 0.5ZM7 7.5H2V2.5H7V7.5Z" fill="white"/>
</g>
<defs>
<clipPath id="clip0_3_584">
<rect width="20" height="20" fill="white" transform="translate(0 0.5)"/>
</clipPath>
</defs>
</svg>
